<svg width="200" height="127" viewBox="0 0 200 127" fill="none" xmlns="http://www.w3.org/2000/svg">
<path d="M29.6243 91.92H56.3643V57.62H64.2043V110.61H21.7843V87.93H29.6243V91.92ZM46.9843 57.9V65.67L40.0543 70.78L47.2643 76.38V85.76L33.8243 75.33L19.4043 86.04V76.66L34.1743 65.67H19.4043V57.9H46.9843ZM29.6243 103.26H56.3643V98.85H29.6243V103.26ZM110.445 57.9C112.125 57.9 113.711 58.2267 115.205 58.88C116.698 59.5333 117.981 60.42 119.055 61.54C120.175 62.66 121.038 63.9667 121.645 65.46C122.298 66.9067 122.625 68.47 122.625 70.15V75.89C122.625 77.57 122.298 79.1567 121.645 80.65C121.038 82.0967 120.175 83.38 119.055 84.5C117.981 85.62 116.698 86.5067 115.205 87.16C113.711 87.8133 112.125 88.14 110.445 88.14H89.5848C87.9048 88.14 86.3181 87.8133 84.8248 87.16C83.3781 86.5067 82.0948 85.62 80.9748 84.5C79.8548 83.38 78.9681 82.0967 78.3148 80.65C77.7081 79.1567 77.4048 77.57 77.4048 75.89V70.15C77.4048 68.47 77.7081 66.9067 78.3148 65.46C78.9681 63.9667 79.8548 62.66 80.9748 61.54C82.0948 60.42 83.3781 59.5333 84.8248 58.88C86.3181 58.2267 87.9048 57.9 89.5848 57.9H110.445ZM108.975 80.3C109.815 80.3 110.608 80.1367 111.355 79.81C112.101 79.4833 112.731 79.04 113.245 78.48C113.805 77.92 114.225 77.29 114.505 76.59C114.831 75.8433 114.995 75.05 114.995 74.21V71.83C114.995 70.99 114.831 70.1967 114.505 69.45C114.225 68.7033 113.805 68.0733 113.245 67.56C112.731 67 112.101 66.5567 111.355 66.23C110.608 65.9033 109.815 65.74 108.975 65.74H91.0548C90.2148 65.74 89.4214 65.9033 88.6748 66.23C87.9281 66.5567 87.2748 67 86.7148 67.56C86.2014 68.0733 85.7814 68.7033 85.4548 69.45C85.1748 70.1967 85.0348 70.99 85.0348 71.83V74.21C85.0348 75.05 85.1748 75.8433 85.4548 76.59C85.7814 77.29 86.2014 77.92 86.7148 78.48C87.2748 79.04 87.9281 79.4833 88.6748 79.81C89.4214 80.1367 90.2148 80.3 91.0548 80.3H108.975ZM124.095 102.63V110.61H75.9348V102.63H124.095ZM154.095 103.12V93.04H137.435V72.04H170.895V65.46H137.435V57.9H178.455V79.11H144.995V85.55H178.875V93.04H161.795V103.12H182.025V110.61H133.865V103.12H154.095Z" fill="#359BC8"/>
<path d="M29.6243 91.92H29.1243C29.1243 92.1961 29.3482 92.42 29.6243 92.42V91.92ZM56.3643 91.92V92.42C56.6404 92.42 56.8643 92.1961 56.8643 91.92H56.3643ZM56.3643 57.62V57.12C56.0882 57.12 55.8643 57.3439 55.8643 57.62H56.3643ZM64.2043 57.62H64.7043C64.7043 57.3439 64.4804 57.12 64.2043 57.12V57.62ZM64.2043 110.61V111.11C64.4804 111.11 64.7043 110.886 64.7043 110.61H64.2043ZM21.7843 110.61H21.2843C21.2843 110.886 21.5082 111.11 21.7843 111.11V110.61ZM21.7843 87.93V87.43C21.5082 87.43 21.2843 87.6539 21.2843 87.93H21.7843ZM29.6243 87.93H30.1243C30.1243 87.6539 29.9004 87.43 29.6243 87.43V87.93ZM46.9843 57.9H47.4843C47.4843 57.6239 47.2604 57.4 46.9843 57.4V57.9ZM46.9843 65.67L47.281 66.0724C47.4089 65.9782 47.4843 65.8288 47.4843 65.67H46.9843ZM40.0543 70.78L39.7576 70.3776C39.6315 70.4705 39.5563 70.6172 39.5543 70.7738C39.5524 70.9303 39.6239 71.0788 39.7476 71.1749L40.0543 70.78ZM47.2643 76.38H47.7643C47.7643 76.2256 47.693 76.0798 47.571 75.9851L47.2643 76.38ZM47.2643 85.76L46.9578 86.155C47.1086 86.272 47.3128 86.293 47.4842 86.209C47.6556 86.1251 47.7643 85.9509 47.7643 85.76H47.2643ZM33.8243 75.33L34.1308 74.935C33.9536 74.7974 33.7063 74.7948 33.5262 74.9286L33.8243 75.33ZM19.4043 86.04H18.9043C18.9043 86.229 19.0108 86.4018 19.1796 86.4867C19.3485 86.5716 19.5507 86.5541 19.7024 86.4414L19.4043 86.04ZM19.4043 76.66L19.1058 76.2589C18.979 76.3532 18.9043 76.502 18.9043 76.66H19.4043ZM34.1743 65.67L34.4728 66.0711C34.6457 65.9425 34.7167 65.7174 34.6489 65.5128C34.5812 65.3082 34.3899 65.17 34.1743 65.17V65.67ZM19.4043 65.67H18.9043C18.9043 65.9461 19.1282 66.17 19.4043 66.17V65.67ZM19.4043 57.9V57.4C19.1282 57.4 18.9043 57.6239 18.9043 57.9H19.4043ZM29.6243 103.26H29.1243C29.1243 103.536 29.3482 103.76 29.6243 103.76V103.26ZM56.3643 103.26V103.76C56.6404 103.76 56.8643 103.536 56.8643 103.26H56.3643ZM56.3643 98.85H56.8643C56.8643 98.5739 56.6404 98.35 56.3643 98.35V98.85ZM29.6243 98.85V98.35C29.3482 98.35 29.1243 98.5739 29.1243 98.85H29.6243ZM29.6243 92.42H56.3643V91.42H29.6243V92.42ZM56.8643 91.92V57.62H55.8643V91.92H56.8643ZM56.3643 58.12H64.2043V57.12H56.3643V58.12ZM63.7043 57.62V110.61H64.7043V57.62H63.7043ZM64.2043 110.11H21.7843V111.11H64.2043V110.11ZM22.2843 110.61V87.93H21.2843V110.61H22.2843ZM21.7843 88.43H29.6243V87.43H21.7843V88.43ZM29.1243 87.93V91.92H30.1243V87.93H29.1243ZM46.4843 57.9V65.67H47.4843V57.9H46.4843ZM46.6876 65.2676L39.7576 70.3776L40.351 71.1824L47.281 66.0724L46.6876 65.2676ZM39.7476 71.1749L46.9576 76.7749L47.571 75.9851L40.361 70.3851L39.7476 71.1749ZM46.7643 76.38V85.76H47.7643V76.38H46.7643ZM47.5708 85.365L34.1308 74.935L33.5178 75.725L46.9578 86.155L47.5708 85.365ZM33.5262 74.9286L19.1062 85.6386L19.7024 86.4414L34.1224 75.7314L33.5262 74.9286ZM19.9043 86.04V76.66H18.9043V86.04H19.9043ZM19.7028 77.0611L34.4728 66.0711L33.8758 65.2689L19.1058 76.2589L19.7028 77.0611ZM34.1743 65.17H19.4043V66.17H34.1743V65.17ZM19.9043 65.67V57.9H18.9043V65.67H19.9043ZM19.4043 58.4H46.9843V57.4H19.4043V58.4ZM29.6243 103.76H56.3643V102.76H29.6243V103.76ZM56.8643 103.26V98.85H55.8643V103.26H56.8643ZM56.3643 98.35H29.6243V99.35H56.3643V98.35ZM29.1243 98.85V103.26H30.1243V98.85H29.1243ZM119.055 61.54L118.694 61.886L118.701 61.8936L119.055 61.54ZM121.645 65.46L121.182 65.6482C121.184 65.6541 121.186 65.66 121.189 65.6658L121.645 65.46ZM121.645 80.65L121.187 80.4496L121.184 80.4566L121.645 80.65ZM119.055 84.5L118.701 84.1464L118.694 84.154L119.055 84.5ZM84.8248 87.16L84.619 87.6157L84.6244 87.6181L84.8248 87.16ZM80.9748 84.5L81.3283 84.1464L80.9748 84.5ZM78.3148 80.65L77.8515 80.8382C77.8539 80.8441 77.8565 80.85 77.8591 80.8558L78.3148 80.65ZM78.3148 65.46L77.8566 65.2596L77.8537 65.2666L78.3148 65.46ZM80.9748 61.54L80.6212 61.1864L80.9748 61.54ZM84.8248 58.88L84.6243 58.4219L84.619 58.4243L84.8248 58.88ZM111.355 79.81L111.154 79.3519L111.355 79.81ZM113.245 78.48L112.891 78.1264C112.886 78.1316 112.881 78.1368 112.876 78.1421L113.245 78.48ZM114.505 76.59L114.047 76.3896C114.045 76.3945 114.043 76.3994 114.041 76.4043L114.505 76.59ZM114.505 69.45L114.037 69.6256C114.04 69.6339 114.043 69.6422 114.047 69.6504L114.505 69.45ZM113.245 67.56L112.876 67.8979C112.886 67.9085 112.896 67.9188 112.907 67.9286L113.245 67.56ZM111.355 66.23L111.154 66.6881V66.6881L111.355 66.23ZM88.6748 66.23L88.8752 66.6881V66.6881L88.6748 66.23ZM86.7148 67.56L87.0683 67.9136L86.7148 67.56ZM85.4548 69.45L84.9967 69.2496C84.9931 69.2578 84.9897 69.2661 84.9866 69.2744L85.4548 69.45ZM85.4548 76.59L84.9866 76.7656C84.9912 76.7777 84.9962 76.7897 85.0017 76.8014L85.4548 76.59ZM86.7148 78.48L86.3462 78.8179C86.3511 78.8232 86.3561 78.8284 86.3612 78.8336L86.7148 78.48ZM88.6748 79.81L88.8752 79.3519L88.6748 79.81ZM124.095 102.63H124.595C124.595 102.354 124.371 102.13 124.095 102.13V102.63ZM124.095 110.61V111.11C124.371 111.11 124.595 110.886 124.595 110.61H124.095ZM75.9348 110.61H75.4348C75.4348 110.886 75.6586 111.11 75.9348 111.11V110.61ZM75.9348 102.63V102.13C75.6586 102.13 75.4348 102.354 75.4348 102.63H75.9348ZM110.445 58.4C112.058 58.4 113.576 58.7132 115.004 59.3381L115.405 58.4219C113.847 57.7401 112.192 57.4 110.445 57.4V58.4ZM115.004 59.3381C116.44 59.9664 117.668 60.8159 118.694 61.886L119.416 61.194C118.295 60.0241 116.956 59.1003 115.405 58.4219L115.004 59.3381ZM118.701 61.8936C119.773 62.9655 120.6 64.2156 121.182 65.6482L122.108 65.2718C121.477 63.7177 120.576 62.3545 119.408 61.1864L118.701 61.8936ZM121.189 65.6658C121.812 67.044 122.125 68.5367 122.125 70.15H123.125C123.125 68.4033 122.785 66.7693 122.1 65.2542L121.189 65.6658ZM122.125 70.15V75.89H123.125V70.15H122.125ZM122.125 75.89C122.125 77.5032 121.812 79.0214 121.187 80.4496L122.103 80.8504C122.785 79.2919 123.125 77.6368 123.125 75.89H122.125ZM121.184 80.4566C120.602 81.8428 119.776 83.0719 118.701 84.1464L119.408 84.8535C120.574 83.6881 121.474 82.3505 122.106 80.8434L121.184 80.4566ZM118.694 84.154C117.668 85.2241 116.44 86.0736 115.004 86.7019L115.405 87.6181C116.956 86.9397 118.295 86.0159 119.416 84.846L118.694 84.154ZM115.004 86.7019C113.576 87.3267 112.058 87.64 110.445 87.64V88.64C112.192 88.64 113.847 88.2999 115.405 87.6181L115.004 86.7019ZM110.445 87.64H89.5848V88.64H110.445V87.64ZM89.5848 87.64C87.9716 87.64 86.4534 87.3267 85.0252 86.7019L84.6244 87.6181C86.1828 88.2999 87.838 88.64 89.5848 88.64V87.64ZM85.0306 86.7043C83.6388 86.0758 82.4055 85.2237 81.3283 84.1464L80.6212 84.8535C81.784 86.0163 83.1174 86.9376 84.619 87.6157L85.0306 86.7043ZM81.3283 84.1464C80.2511 83.0692 79.399 81.836 78.7705 80.4442L77.8591 80.8558C78.5372 82.3573 79.4584 83.6908 80.6212 84.8535L81.3283 84.1464ZM78.778 80.4618C78.1966 79.0308 77.9048 77.5083 77.9048 75.89H76.9048C76.9048 77.6317 77.2196 79.2826 77.8515 80.8382L78.778 80.4618ZM77.9048 75.89V70.15H76.9048V75.89H77.9048ZM77.9048 70.15C77.9048 68.5316 78.1967 67.0345 78.7759 65.6534L77.8537 65.2666C77.2195 66.7788 76.9048 68.4084 76.9048 70.15H77.9048ZM78.7729 65.6604C79.4019 64.2225 80.2537 62.9682 81.3283 61.8936L80.6212 61.1864C79.4558 62.3518 78.5343 63.7108 77.8567 65.2596L78.7729 65.6604ZM81.3283 61.8936C82.4055 60.8163 83.6388 59.9642 85.0306 59.3357L84.619 58.4243C83.1174 59.1024 81.784 60.0237 80.6212 61.1864L81.3283 61.8936ZM85.0252 59.3381C86.4534 58.7132 87.9716 58.4 89.5848 58.4V57.4C87.838 57.4 86.1828 57.7401 84.6244 58.4219L85.0252 59.3381ZM89.5848 58.4H110.445V57.4H89.5848V58.4ZM108.975 80.8C109.882 80.8 110.743 80.6232 111.555 80.2681L111.154 79.3519C110.473 79.6501 109.748 79.8 108.975 79.8V80.8ZM111.555 80.2681C112.361 79.9156 113.05 79.4329 113.613 78.8179L112.876 78.1421C112.413 78.6471 111.842 79.0511 111.154 79.3519L111.555 80.2681ZM113.598 78.8336C114.204 78.2281 114.663 77.5417 114.969 76.7757L114.041 76.4043C113.787 77.0383 113.406 77.6119 112.891 78.1264L113.598 78.8336ZM114.963 76.7904C115.318 75.9786 115.495 75.1168 115.495 74.21H114.495C114.495 74.9832 114.345 75.7081 114.047 76.3896L114.963 76.7904ZM115.495 74.21V71.83H114.495V74.21H115.495ZM115.495 71.83C115.495 70.9232 115.318 70.0614 114.963 69.2496L114.047 69.6504C114.345 70.3319 114.495 71.0568 114.495 71.83H115.495ZM114.973 69.2744C114.667 68.4578 114.204 67.7606 113.583 67.1914L112.907 67.9286C113.406 68.3861 113.783 68.9488 114.037 69.6256L114.973 69.2744ZM113.613 67.2221C113.05 66.6071 112.361 66.1244 111.555 65.7719L111.154 66.6881C111.842 66.9889 112.413 67.3929 112.876 67.8979L113.613 67.2221ZM111.555 65.7719C110.743 65.4167 109.882 65.24 108.975 65.24V66.24C109.748 66.24 110.473 66.3899 111.154 66.6881L111.555 65.7719ZM108.975 65.24H91.0548V66.24H108.975V65.24ZM91.0548 65.24C90.148 65.24 89.2862 65.4167 88.4744 65.7719L88.8752 66.6881C89.5567 66.3899 90.2816 66.24 91.0548 66.24V65.24ZM88.4744 65.7719C87.6723 66.1228 86.9666 66.6011 86.3612 67.2064L87.0683 67.9136C87.5829 67.3989 88.1839 66.9905 88.8752 66.6881L88.4744 65.7719ZM86.3612 67.2064C85.7987 67.7689 85.3453 68.4528 84.9967 69.2496L85.9128 69.6504C86.2176 68.9539 86.6042 68.3777 87.0683 67.9136L86.3612 67.2064ZM84.9866 69.2744C84.6844 70.0802 84.5348 70.9333 84.5348 71.83H85.5348C85.5348 71.0467 85.6651 70.3131 85.9229 69.6256L84.9866 69.2744ZM84.5348 71.83V74.21H85.5348V71.83H84.5348ZM84.5348 74.21C84.5348 75.1067 84.6844 75.9598 84.9866 76.7656L85.9229 76.4144C85.6651 75.7269 85.5348 74.9933 85.5348 74.21H84.5348ZM85.0017 76.8014C85.3495 77.5469 85.7978 78.2196 86.3462 78.8179L87.0833 78.1421C86.605 77.6204 86.2133 77.0331 85.9079 76.3786L85.0017 76.8014ZM86.3612 78.8336C86.9666 79.4389 87.6723 79.9172 88.4744 80.2681L88.8752 79.3519C88.1839 79.0495 87.5829 78.6411 87.0683 78.1264L86.3612 78.8336ZM88.4744 80.2681C89.2862 80.6232 90.148 80.8 91.0548 80.8V79.8C90.2816 79.8 89.5567 79.6501 88.8752 79.3519L88.4744 80.2681ZM91.0548 80.8H108.975V79.8H91.0548V80.8ZM123.595 102.63V110.61H124.595V102.63H123.595ZM124.095 110.11H75.9348V111.11H124.095V110.11ZM76.4348 110.61V102.63H75.4348V110.61H76.4348ZM75.9348 103.13H124.095V102.13H75.9348V103.13ZM154.095 103.12V103.62C154.371 103.62 154.595 103.396 154.595 103.12H154.095ZM154.095 93.04H154.595C154.595 92.7639 154.371 92.54 154.095 92.54V93.04ZM137.435 93.04H136.935C136.935 93.3161 137.159 93.54 137.435 93.54V93.04ZM137.435 72.04V71.54C137.159 71.54 136.935 71.7639 136.935 72.04H137.435ZM170.895 72.04V72.54C171.171 72.54 171.395 72.3161 171.395 72.04H170.895ZM170.895 65.46H171.395C171.395 65.1839 171.171 64.96 170.895 64.96V65.46ZM137.435 65.46H136.935C136.935 65.7361 137.159 65.96 137.435 65.96V65.46ZM137.435 57.9V57.4C137.159 57.4 136.935 57.6239 136.935 57.9H137.435ZM178.455 57.9H178.955C178.955 57.6239 178.731 57.4 178.455 57.4V57.9ZM178.455 79.11V79.61C178.731 79.61 178.955 79.3861 178.955 79.11H178.455ZM144.995 79.11V78.61C144.719 78.61 144.495 78.8339 144.495 79.11H144.995ZM144.995 85.55H144.495C144.495 85.8261 144.719 86.05 144.995 86.05V85.55ZM178.875 85.55H179.375C179.375 85.2739 179.151 85.05 178.875 85.05V85.55ZM178.875 93.04V93.54C179.151 93.54 179.375 93.3161 179.375 93.04H178.875ZM161.795 93.04V92.54C161.519 92.54 161.295 92.7639 161.295 93.04H161.795ZM161.795 103.12H161.295C161.295 103.396 161.519 103.62 161.795 103.62V103.12ZM182.025 103.12H182.525C182.525 102.844 182.301 102.62 182.025 102.62V103.12ZM182.025 110.61V111.11C182.301 111.11 182.525 110.886 182.525 110.61H182.025ZM133.865 110.61H133.365C133.365 110.886 133.589 111.11 133.865 111.11V110.61ZM133.865 103.12V102.62C133.589 102.62 133.365 102.844 133.365 103.12H133.865ZM154.595 103.12V93.04H153.595V103.12H154.595ZM154.095 92.54H137.435V93.54H154.095V92.54ZM137.935 93.04V72.04H136.935V93.04H137.935ZM137.435 72.54H170.895V71.54H137.435V72.54ZM171.395 72.04V65.46H170.395V72.04H171.395ZM170.895 64.96H137.435V65.96H170.895V64.96ZM137.935 65.46V57.9H136.935V65.46H137.935ZM137.435 58.4H178.455V57.4H137.435V58.4ZM177.955 57.9V79.11H178.955V57.9H177.955ZM178.455 78.61H144.995V79.61H178.455V78.61ZM144.495 79.11V85.55H145.495V79.11H144.495ZM144.995 86.05H178.875V85.05H144.995V86.05ZM178.375 85.55V93.04H179.375V85.55H178.375ZM178.875 92.54H161.795V93.54H178.875V92.54ZM161.295 93.04V103.12H162.295V93.04H161.295ZM161.795 103.62H182.025V102.62H161.795V103.62ZM181.525 103.12V110.61H182.525V103.12H181.525ZM182.025 110.11H133.865V111.11H182.025V110.11ZM134.365 110.61V103.12H133.365V110.61H134.365ZM133.865 103.62H154.095V102.62H133.865V103.62Z" fill="#359BC8"/>
<path d="M97.3327 0.76562C97.3016 0.787612 97.2694 0.806155 97.2373 0.824698C97.197 0.847881 97.1567 0.871064 97.1187 0.900986C52.9297 35.5504 4.68543 37.8138 4.20364 37.8327C1.79616 37.9244 -0.0844103 40.0189 0.00292273 42.5123C0.0873447 44.9503 2.02323 46.8673 4.3623 46.8673C4.4147 46.8673 4.46855 46.8673 4.52095 46.8644C6.55872 46.7887 54.0664 44.6272 99.7533 10.1292C145.442 44.6272 192.949 46.7887 194.986 46.8644C195.039 46.8673 195.093 46.8673 195.146 46.8673C197.483 46.8673 199.419 44.9503 199.505 42.5123C199.592 40.0175 197.709 37.9229 195.3 37.8327M97.3327 0.76562L97.6173 1.17671C97.618 1.17626 97.6186 1.1758 97.6193 1.17535M97.3327 0.76562C97.4651 0.67392 97.5962 0.586587 97.7359 0.510898M97.3327 0.76562L97.6217 1.17364C97.6209 1.17421 97.6201 1.17478 97.6193 1.17535M97.6193 1.17535C97.5681 1.21137 97.5155 1.24156 97.4855 1.25871L97.4753 1.26458C97.4403 1.2848 97.4316 1.29099 97.428 1.29384L97.4273 1.29445C53.1163 36.0394 4.74613 38.3118 4.22327 38.3323L4.22267 38.3323C2.10667 38.4129 0.424354 40.2604 0.502616 42.4948L0.502623 42.495C0.578222 44.6782 2.30684 46.3673 4.3623 46.3673C4.41719 46.3673 4.45703 46.3671 4.49319 46.3651L4.50239 46.3646L4.50239 46.3647C6.49719 46.2906 53.8841 44.1384 99.452 9.73016L99.7533 9.50265L100.055 9.73015C145.624 44.1384 193.011 46.2906 195.004 46.3647L195.013 46.365C195.051 46.3672 195.091 46.3673 195.146 46.3673C197.2 46.3673 198.928 44.6783 199.005 42.4947C199.084 40.2593 197.399 38.4117 195.281 38.3323M97.6193 1.17535C97.7478 1.08641 97.8598 1.01242 97.9739 0.950632M195.281 38.3323C195.281 38.3323 195.282 38.3323 195.282 38.3323L195.3 37.8327M195.281 38.3323L195.3 37.8327M195.281 38.3323C194.726 38.3118 146.487 36.1134 102.081 1.29445M195.3 37.8327C194.82 37.8152 146.689 35.6363 102.389 0.900986M102.389 0.900986L102.081 1.29474C102.081 1.29465 102.081 1.29455 102.081 1.29445M102.389 0.900986C102.352 0.871594 102.311 0.848155 102.271 0.824761C102.24 0.806449 102.208 0.788165 102.178 0.767075M102.389 0.900986L102.081 1.29445M102.081 1.29445C102.076 1.29092 102.066 1.28391 102.032 1.26421L102.022 1.25807C101.992 1.241 101.941 1.21159 101.893 1.17752M102.178 0.767075L101.893 1.17752M102.178 0.767075C102.044 0.67392 101.91 0.585131 101.769 0.509443C101.648 0.443943 101.526 0.390088 101.401 0.336232M102.178 0.767075L101.891 1.17629C101.891 1.1767 101.892 1.17711 101.893 1.17752M101.893 1.17752C101.763 1.08746 101.648 1.0119 101.533 0.950121L101.531 0.948996C101.432 0.895421 101.328 0.849365 101.204 0.795956M101.204 0.795956C101.205 0.796163 101.205 0.79637 101.206 0.796578L101.401 0.336232M101.204 0.795956C101.204 0.795813 101.204 0.79567 101.203 0.795527L101.401 0.336232M101.204 0.795956C101.079 0.742714 100.963 0.697945 100.849 0.663069L100.847 0.662638C100.732 0.627039 100.613 0.59886 100.485 0.573257L100.484 0.573056C100.356 0.547146 100.239 0.527488 100.125 0.516693L100.12 0.516202V0.516175C100.005 0.504102 99.886 0.5 99.7576 0.5C99.6247 0.5 99.5018 0.504107 99.3819 0.51634L99.3793 0.516603C99.2689 0.527287 99.1558 0.546748 99.0298 0.571634M101.401 0.336232C101.267 0.279466 101.133 0.227066 100.995 0.184855L99.3312 0.0189222C99.1958 0.0320221 99.0633 0.0553109 98.9309 0.0815108M99.0298 0.571634C99.0305 0.571492 99.0312 0.571351 99.0319 0.57121L98.9309 0.0815108M99.0298 0.571634C98.8965 0.599143 98.7746 0.627393 98.6568 0.662882M99.0298 0.571634C99.0292 0.571758 99.0285 0.571882 99.0279 0.572006L98.9309 0.0815108M98.9309 0.0815108L97.7359 0.510898M97.7359 0.510898L97.974 0.950544C97.974 0.950573 97.9739 0.950603 97.9739 0.950632M97.7359 0.510898L97.9739 0.950632M97.9739 0.950632C98.076 0.895372 98.1833 0.847553 98.3071 0.794894M98.3071 0.794894C98.4309 0.742637 98.5452 0.697821 98.6568 0.662882M98.3071 0.794894C98.3067 0.795063 98.3063 0.795231 98.3059 0.7954L98.1114 0.334777L98.3071 0.794894ZM98.6568 0.662882C98.6562 0.663085 98.6555 0.663289 98.6548 0.663493L98.5102 0.184855L98.6591 0.662187C98.6583 0.662418 98.6576 0.66265 98.6568 0.662882Z" fill="#359BC8" stroke="#359BC8"/>
<path d="M40.8696 49.5455C40.8696 51.5779 39.2231 53.2244 37.1907 53.2244H35.9593C33.9283 53.2244 32.2804 51.5777 32.2804 49.5455V38.9622C32.2804 36.4811 34.2197 34.4987 36.575 34.4987C38.9303 34.4987 40.8696 36.4811 40.8696 38.9622V49.5455Z" fill="#359BC8" stroke="#359BC8"/>
<path d="M154.64 38.9622V38.9622C154.64 36.4809 156.578 34.4987 158.933 34.4987C161.288 34.4987 163.228 36.4811 163.228 38.9622V49.5455C163.228 51.5779 161.581 53.2244 159.549 53.2244H158.317C156.286 53.2244 154.638 51.5778 154.638 49.5456C154.638 49.5455 154.638 49.5455 154.638 49.5455L154.64 38.9622Z" fill="#359BC8" stroke="#359BC8"/>
</svg>
