<svg width="38" height="43" viewBox="0 0 38 43" fill="none" xmlns="http://www.w3.org/2000/svg">
<path d="M19.7802 20.8745C21.7791 19.4043 23.077 17.0367 23.077 14.365C23.077 9.90416 19.4607 6.28784 15.0001 6.28784C10.5393 6.28784 6.92321 9.90416 6.92321 14.365C6.92321 17.0367 8.22109 19.4043 10.2198 20.8745C5.82923 22.8157 0 28.1825 0 43H15.0001H30C30 28.1825 24.171 22.8157 19.7802 20.8745Z" fill="#707070"/>
<path d="M24.2871 19.8586V14.136H18.7871C17.7998 14.136 17 12.97 17 11.5286C17 10.0969 17.7998 8.93091 18.7871 8.93091H24.2871V3.43091C24.2871 2.44263 25.4521 1.6438 26.8887 1.6438C28.3271 1.6438 29.4912 2.44263 29.4912 3.43091V8.93091H35.2139C36.2012 8.93091 37 10.0969 37 11.5286C37 12.97 36.2012 14.136 35.2139 14.136H29.4912V19.8586C29.4912 20.845 28.3271 21.6438 26.8887 21.6438C25.4521 21.6438 24.2871 20.845 24.2871 19.8586Z" fill="#707070" stroke="white" stroke-width="2"/>
</svg>
