<svg width="30" height="32" viewBox="0 0 30 32" fill="none" xmlns="http://www.w3.org/2000/svg">
<path d="M27.8732 23.4704V23.4645H27.1882C24.7836 23.4645 25.2126 21.3966 25.15 20.3401V12.6103C25.15 7.85196 21.9489 3.8442 17.5833 2.6166C17.5833 1.19003 16.4269 0.0335693 15.0003 0.0335693C13.5734 0.0335693 12.417 1.19003 12.417 2.6166C8.0514 3.8442 4.85028 7.85196 4.85028 12.6103V20.3401C4.78774 21.3966 5.21666 23.4645 2.81206 23.4645H2.12713V23.4704C0.942463 23.5317 0 24.5088 0 25.7088C0 26.9085 0.942463 27.8856 2.12713 27.9469V27.9527H4.85028H15.0003H25.15H27.8732V27.9469C29.0578 27.8856 30.0003 26.9085 30.0003 25.7088C30.0003 24.5088 29.0578 23.5317 27.8732 23.4704Z" fill="#707070"/>
<path d="M15 32.0001C16.7242 32.0001 18.122 30.6023 18.122 28.8781H11.8779C11.8779 30.6023 13.2757 32.0001 15 32.0001Z" fill="#707070"/>
</svg>
