<svg width="14" height="20" viewBox="0 0 14 20" fill="none" xmlns="http://www.w3.org/2000/svg">
<path d="M8.75419 19.2918H5.75449C2.99726 19.2918 0.754089 17.049 0.754089 14.2923V12.2493C0.754089 9.49207 2.99726 7.2489 5.75449 7.2489H8.75419C11.5109 7.2489 13.7537 9.49207 13.7537 12.2493V14.2923C13.7537 17.049 11.5109 19.2918 8.75419 19.2918ZM7.41229 10.4799C6.53837 10.4799 5.82739 11.1424 5.82739 11.9568C5.82739 12.477 6.11203 12.9487 6.58879 13.2186V14.9961C6.58879 15.4507 6.95821 15.8205 7.41229 15.8205C7.86687 15.8205 8.23669 15.4507 8.23669 14.9961V13.2186C8.71364 12.9477 8.99809 12.4763 8.99809 11.9568C8.99809 11.1424 8.2867 10.4799 7.41229 10.4799Z" fill="#707070"/>
<path d="M8.87969 2.5363C8.26012 1.85292 7.64357 1.76984 7.45117 1.7615C7.4451 1.76103 7.43185 1.76084 7.41224 1.76069C7.39833 1.76074 7.39069 1.76121 7.39 1.76127C6.96487 1.76882 4.58535 2.09908 4.2523 8.51086L2.94916 8.39826C3.12345 5.04414 3.84848 2.6411 5.1041 1.25628C6.07484 0.185589 7.04804 0.0753105 7.41634 0.0765175C7.78451 0.0752941 8.75783 0.185511 9.72864 1.25628C10.9841 2.6411 11.7091 5.04414 11.8834 8.39826L10.5804 8.51086C10.4325 5.66628 9.84449 3.60041 8.87969 2.5363Z" fill="#707070"/>
</svg>
