<svg width="35" height="35" viewBox="0 0 35 35" fill="none" xmlns="http://www.w3.org/2000/svg">
<path d="M31.1378 14.1952C30.7847 12.6201 30.1704 11.144 29.341 9.81504C29.9071 8.71691 30.5871 7.66479 31.3584 6.90373L29.6321 5.15336L27.9055 3.40335C27.1338 4.16478 26.0718 4.83016 24.9657 5.3816C23.5951 4.50003 22.0635 3.84889 20.4238 3.48077C20.0396 2.30668 19.7679 1.08401 19.7679 0.00012207H17.3094H14.8509C14.8509 1.08401 14.5792 2.30668 14.195 3.48077C12.5875 3.84158 11.084 4.47446 9.73421 5.32974C8.63206 4.771 7.57483 4.09795 6.80829 3.33141L5.06997 5.07009L3.33129 6.80841C4.09783 7.57495 4.77088 8.63218 5.32962 9.73433C4.47434 11.0845 3.84146 12.588 3.48065 14.1952C2.30656 14.5793 1.08353 14.8511 0 14.8511V17.3095V19.768C1.08353 19.768 2.30656 20.0397 3.48065 20.4239C3.84146 22.0315 4.47434 23.5346 5.32962 24.8847C4.77088 25.9869 4.09783 27.0441 3.33129 27.8106L5.06997 29.549L6.80829 31.2876C7.57483 30.5211 8.63206 29.8481 9.73421 29.2893C11.0843 30.1446 12.5875 30.7775 14.195 31.1379C14.5792 32.3124 14.8509 33.5354 14.8509 34.6189H17.3094H19.7679C19.7679 33.5354 20.0396 32.3124 20.4238 31.1379C22.031 30.7775 23.5345 30.1446 24.8846 29.2893C25.9867 29.8481 27.044 30.5211 27.8105 31.2876L29.5488 29.549L31.2875 27.8106C30.521 27.0441 29.8479 25.9869 29.2892 24.8847C30.1445 23.5346 30.7773 22.0311 31.1378 20.4239C32.3123 20.0397 33.5349 19.768 34.6188 19.768V17.3095V14.8511C33.5349 14.8511 32.3123 14.5793 31.1378 14.1952ZM17.3094 25.8704C12.5813 25.8704 8.74856 22.0377 8.74856 17.3095C8.74856 12.5814 12.5813 8.74868 17.3094 8.74868C22.0376 8.74868 25.8703 12.5814 25.8703 17.3095C25.8703 22.0377 22.0376 25.8704 17.3094 25.8704Z" fill="#707070"/>
<path d="M17.3093 10.6549C13.634 10.6549 10.6548 13.6341 10.6548 17.3094C10.6548 20.9847 13.634 23.964 17.3093 23.964C20.9846 23.964 23.9638 20.9847 23.9638 17.3094C23.9638 13.6341 20.9846 10.6549 17.3093 10.6549Z" fill="#707070"/>
</svg>
